<?xml version="1.0" encoding="UTF-8" standalone="no"?>
<!DOCTYPE svg PUBLIC "-//W3C//DTD SVG 1.1//EN"
 "http://www.w3.org/Graphics/SVG/1.1/DTD/svg11.dtd">
<!-- Generated by graphviz version 2.40.1 (20161225.0304)
 -->
<!-- Title: %3 Pages: 1 -->
<svg width="1153pt" height="548pt"
 viewBox="0.00 0.00 1152.96 548.00" xmlns="http://www.w3.org/2000/svg" xmlns:xlink="http://www.w3.org/1999/xlink">
<g id="graph0" class="graph" transform="scale(1 1) rotate(0) translate(4 544)">
<title>%3</title>
<polygon fill="#ffffff" stroke="transparent" points="-4,4 -4,-544 1148.9575,-544 1148.9575,4 -4,4"/>
<!-- [root] aws_default_route_table.ansari_private_route -->
<g id="node1" class="node">
<title>[root] aws_default_route_table.ansari_private_route</title>
<polygon fill="none" stroke="#000000" points="475.5,-324 211.5,-324 211.5,-288 475.5,-288 475.5,-324"/>
<text text-anchor="middle" x="343.5" y="-302.3" font-family="Times,serif" font-size="14.00" fill="#000000">aws_default_route_table.ansari_private_route</text>
</g>
<!-- [root] aws_vpc.ansari_main -->
<g id="node11" class="node">
<title>[root] aws_vpc.ansari_main</title>
<polygon fill="none" stroke="#000000" points="626.5,-180 492.5,-180 492.5,-144 626.5,-144 626.5,-180"/>
<text text-anchor="middle" x="559.5" y="-158.3" font-family="Times,serif" font-size="14.00" fill="#000000">aws_vpc.ansari_main</text>
</g>
<!-- [root] aws_default_route_table.ansari_private_route&#45;&gt;[root] aws_vpc.ansari_main -->
<g id="edge1" class="edge">
<title>[root] aws_default_route_table.ansari_private_route&#45;&gt;[root] aws_vpc.ansari_main</title>
<path fill="none" stroke="#000000" d="M399.5146,-287.9153C422.8559,-279.0053 449.5723,-266.9349 471.5,-252 478.8248,-247.0111 512.2016,-212.2067 535.6727,-187.3763"/>
<polygon fill="#000000" stroke="#000000" points="538.2825,-189.7103 542.599,-180.0346 533.1908,-184.9067 538.2825,-189.7103"/>
</g>
<!-- [root] aws_internet_gateway.ansari_gw -->
<g id="node2" class="node">
<title>[root] aws_internet_gateway.ansari_gw</title>
<polygon fill="none" stroke="#000000" points="716,-252 519,-252 519,-216 716,-216 716,-252"/>
<text text-anchor="middle" x="617.5" y="-230.3" font-family="Times,serif" font-size="14.00" fill="#000000">aws_internet_gateway.ansari_gw</text>
</g>
<!-- [root] aws_internet_gateway.ansari_gw&#45;&gt;[root] aws_vpc.ansari_main -->
<g id="edge2" class="edge">
<title>[root] aws_internet_gateway.ansari_gw&#45;&gt;[root] aws_vpc.ansari_main</title>
<path fill="none" stroke="#000000" d="M602.8642,-215.8314C596.1839,-207.5386 588.1432,-197.557 580.8096,-188.4533"/>
<polygon fill="#000000" stroke="#000000" points="583.3319,-186.0052 574.3329,-180.4133 577.8806,-190.3965 583.3319,-186.0052"/>
</g>
<!-- [root] aws_route_table.ansari_public_route -->
<g id="node3" class="node">
<title>[root] aws_route_table.ansari_public_route</title>
<polygon fill="none" stroke="#000000" points="709.5,-324 493.5,-324 493.5,-288 709.5,-288 709.5,-324"/>
<text text-anchor="middle" x="601.5" y="-302.3" font-family="Times,serif" font-size="14.00" fill="#000000">aws_route_table.ansari_public_route</text>
</g>
<!-- [root] aws_route_table.ansari_public_route&#45;&gt;[root] aws_internet_gateway.ansari_gw -->
<g id="edge3" class="edge">
<title>[root] aws_route_table.ansari_public_route&#45;&gt;[root] aws_internet_gateway.ansari_gw</title>
<path fill="none" stroke="#000000" d="M605.5375,-287.8314C607.2487,-280.131 609.2835,-270.9743 611.1852,-262.4166"/>
<polygon fill="#000000" stroke="#000000" points="614.6554,-262.9344 613.4082,-252.4133 607.8221,-261.4159 614.6554,-262.9344"/>
</g>
<!-- [root] aws_route_table_association.private_subnet_assoc -->
<g id="node4" class="node">
<title>[root] aws_route_table_association.private_subnet_assoc</title>
<polygon fill="none" stroke="#000000" points="291,-396 0,-396 0,-360 291,-360 291,-396"/>
<text text-anchor="middle" x="145.5" y="-374.3" font-family="Times,serif" font-size="14.00" fill="#000000">aws_route_table_association.private_subnet_assoc</text>
</g>
<!-- [root] aws_route_table_association.private_subnet_assoc&#45;&gt;[root] aws_default_route_table.ansari_private_route -->
<g id="edge4" class="edge">
<title>[root] aws_route_table_association.private_subnet_assoc&#45;&gt;[root] aws_default_route_table.ansari_private_route</title>
<path fill="none" stroke="#000000" d="M195.2082,-359.9243C222.2759,-350.0815 255.9439,-337.8386 284.3549,-327.5073"/>
<polygon fill="#000000" stroke="#000000" points="285.5695,-330.7899 293.7714,-324.0831 283.1773,-324.2114 285.5695,-330.7899"/>
</g>
<!-- [root] aws_subnet.ansari_private_subnet -->
<g id="node9" class="node">
<title>[root] aws_subnet.ansari_private_subnet</title>
<polygon fill="none" stroke="#000000" points="246.5,-252 44.5,-252 44.5,-216 246.5,-216 246.5,-252"/>
<text text-anchor="middle" x="145.5" y="-230.3" font-family="Times,serif" font-size="14.00" fill="#000000">aws_subnet.ansari_private_subnet</text>
</g>
<!-- [root] aws_route_table_association.private_subnet_assoc&#45;&gt;[root] aws_subnet.ansari_private_subnet -->
<g id="edge5" class="edge">
<title>[root] aws_route_table_association.private_subnet_assoc&#45;&gt;[root] aws_subnet.ansari_private_subnet</title>
<path fill="none" stroke="#000000" d="M145.5,-359.7623C145.5,-335.201 145.5,-291.2474 145.5,-262.3541"/>
<polygon fill="#000000" stroke="#000000" points="149.0001,-262.0896 145.5,-252.0896 142.0001,-262.0897 149.0001,-262.0896"/>
</g>
<!-- [root] aws_route_table_association.public_subnet_assoc -->
<g id="node5" class="node">
<title>[root] aws_route_table_association.public_subnet_assoc</title>
<polygon fill="none" stroke="#000000" points="596,-396 309,-396 309,-360 596,-360 596,-396"/>
<text text-anchor="middle" x="452.5" y="-374.3" font-family="Times,serif" font-size="14.00" fill="#000000">aws_route_table_association.public_subnet_assoc</text>
</g>
<!-- [root] aws_route_table_association.public_subnet_assoc&#45;&gt;[root] aws_route_table.ansari_public_route -->
<g id="edge6" class="edge">
<title>[root] aws_route_table_association.public_subnet_assoc&#45;&gt;[root] aws_route_table.ansari_public_route</title>
<path fill="none" stroke="#000000" d="M490.099,-359.8314C509.8497,-350.2874 534.2297,-338.5065 555.1417,-328.4013"/>
<polygon fill="#000000" stroke="#000000" points="556.6903,-331.5403 564.1714,-324.038 553.6447,-325.2376 556.6903,-331.5403"/>
</g>
<!-- [root] aws_subnet.ansari_public_subnet -->
<g id="node10" class="node">
<title>[root] aws_subnet.ansari_public_subnet</title>
<polygon fill="none" stroke="#000000" points="462.5,-252 264.5,-252 264.5,-216 462.5,-216 462.5,-252"/>
<text text-anchor="middle" x="363.5" y="-230.3" font-family="Times,serif" font-size="14.00" fill="#000000">aws_subnet.ansari_public_subnet</text>
</g>
<!-- [root] aws_route_table_association.public_subnet_assoc&#45;&gt;[root] aws_subnet.ansari_public_subnet -->
<g id="edge7" class="edge">
<title>[root] aws_route_table_association.public_subnet_assoc&#45;&gt;[root] aws_subnet.ansari_public_subnet</title>
<path fill="none" stroke="#000000" d="M338.0738,-359.9811C276.6342,-349.1385 211.6157,-335.2949 202.5,-324 176.6764,-292.003 217.2622,-269.4617 264.1353,-254.9405"/>
<polygon fill="#000000" stroke="#000000" points="265.2971,-258.2468 273.8929,-252.0529 263.3107,-251.5345 265.2971,-258.2468"/>
</g>
<!-- [root] aws_security_group.my&#45;ansari&#45;sg -->
<g id="node6" class="node">
<title>[root] aws_security_group.my&#45;ansari&#45;sg</title>
<polygon fill="none" stroke="#000000" points="927.5,-324 727.5,-324 727.5,-288 927.5,-288 927.5,-324"/>
<text text-anchor="middle" x="827.5" y="-302.3" font-family="Times,serif" font-size="14.00" fill="#000000">aws_security_group.my&#45;ansari&#45;sg</text>
</g>
<!-- [root] aws_security_group.my&#45;ansari&#45;sg&#45;&gt;[root] aws_vpc.ansari_main -->
<g id="edge8" class="edge">
<title>[root] aws_security_group.my&#45;ansari&#45;sg&#45;&gt;[root] aws_vpc.ansari_main</title>
<path fill="none" stroke="#000000" d="M810.9643,-287.6775C791.9,-267.5473 758.7634,-235.4914 724.5,-216 697.4322,-200.602 665.3371,-188.8372 636.6816,-180.281"/>
<polygon fill="#000000" stroke="#000000" points="637.2823,-176.8111 626.7032,-177.3877 635.3329,-183.5342 637.2823,-176.8111"/>
</g>
<!-- [root] aws_security_group_rule.allow&#45;outbound -->
<g id="node7" class="node">
<title>[root] aws_security_group_rule.allow&#45;outbound</title>
<polygon fill="none" stroke="#000000" points="1083.5,-396 841.5,-396 841.5,-360 1083.5,-360 1083.5,-396"/>
<text text-anchor="middle" x="962.5" y="-374.3" font-family="Times,serif" font-size="14.00" fill="#000000">aws_security_group_rule.allow&#45;outbound</text>
</g>
<!-- [root] aws_security_group_rule.allow&#45;outbound&#45;&gt;[root] aws_security_group.my&#45;ansari&#45;sg -->
<g id="edge9" class="edge">
<title>[root] aws_security_group_rule.allow&#45;outbound&#45;&gt;[root] aws_security_group.my&#45;ansari&#45;sg</title>
<path fill="none" stroke="#000000" d="M928.4338,-359.8314C910.8467,-350.4516 889.2084,-338.9112 870.4832,-328.9244"/>
<polygon fill="#000000" stroke="#000000" points="872.0259,-325.7805 861.5553,-324.1628 868.7318,-331.957 872.0259,-325.7805"/>
</g>
<!-- [root] aws_security_group_rule.allow&#45;ssh -->
<g id="node8" class="node">
<title>[root] aws_security_group_rule.allow&#45;ssh</title>
<polygon fill="none" stroke="#000000" points="823,-396 614,-396 614,-360 823,-360 823,-396"/>
<text text-anchor="middle" x="718.5" y="-374.3" font-family="Times,serif" font-size="14.00" fill="#000000">aws_security_group_rule.allow&#45;ssh</text>
</g>
<!-- [root] aws_security_group_rule.allow&#45;ssh&#45;&gt;[root] aws_security_group.my&#45;ansari&#45;sg -->
<g id="edge10" class="edge">
<title>[root] aws_security_group_rule.allow&#45;ssh&#45;&gt;[root] aws_security_group.my&#45;ansari&#45;sg</title>
<path fill="none" stroke="#000000" d="M746.0053,-359.8314C759.818,-350.7074 776.7256,-339.539 791.5529,-329.7449"/>
<polygon fill="#000000" stroke="#000000" points="793.5886,-332.5949 800.0035,-324.1628 789.7304,-326.7541 793.5886,-332.5949"/>
</g>
<!-- [root] aws_subnet.ansari_private_subnet&#45;&gt;[root] aws_vpc.ansari_main -->
<g id="edge11" class="edge">
<title>[root] aws_subnet.ansari_private_subnet&#45;&gt;[root] aws_vpc.ansari_main</title>
<path fill="none" stroke="#000000" d="M246.7917,-217.4031C249.7264,-216.9293 252.6341,-216.4607 255.5,-216 353.6229,-200.2253 381.1451,-199.8445 482.3905,-180.1461"/>
<polygon fill="#000000" stroke="#000000" points="483.2841,-183.5376 492.4235,-178.1783 481.9368,-176.6685 483.2841,-183.5376"/>
</g>
<!-- [root] data.aws_availability_zones.available -->
<g id="node12" class="node">
<title>[root] data.aws_availability_zones.available</title>
<polygon fill="none" stroke="#000000" points="352,-180 131,-180 131,-144 352,-144 352,-180"/>
<text text-anchor="middle" x="241.5" y="-158.3" font-family="Times,serif" font-size="14.00" fill="#000000">data.aws_availability_zones.available</text>
</g>
<!-- [root] aws_subnet.ansari_private_subnet&#45;&gt;[root] data.aws_availability_zones.available -->
<g id="edge12" class="edge">
<title>[root] aws_subnet.ansari_private_subnet&#45;&gt;[root] data.aws_availability_zones.available</title>
<path fill="none" stroke="#000000" d="M169.7249,-215.8314C181.6628,-206.8779 196.2256,-195.9558 209.106,-186.2955"/>
<polygon fill="#000000" stroke="#000000" points="211.3829,-188.9629 217.2829,-180.1628 207.1829,-183.3629 211.3829,-188.9629"/>
</g>
<!-- [root] var.private_cidrs -->
<g id="node18" class="node">
<title>[root] var.private_cidrs</title>
<polygon fill="none" stroke="#000000" points="106.5,-180 4.5,-180 4.5,-144 112.5,-144 112.5,-174 106.5,-180"/>
<polyline fill="none" stroke="#000000" points="106.5,-180 106.5,-174 "/>
<polyline fill="none" stroke="#000000" points="112.5,-174 106.5,-174 "/>
<text text-anchor="middle" x="58.5" y="-158.3" font-family="Times,serif" font-size="14.00" fill="#000000">var.private_cidrs</text>
</g>
<!-- [root] aws_subnet.ansari_private_subnet&#45;&gt;[root] var.private_cidrs -->
<g id="edge13" class="edge">
<title>[root] aws_subnet.ansari_private_subnet&#45;&gt;[root] var.private_cidrs</title>
<path fill="none" stroke="#000000" d="M123.5462,-215.8314C112.8305,-206.9632 99.7811,-196.1637 88.191,-186.5718"/>
<polygon fill="#000000" stroke="#000000" points="90.3822,-183.8422 80.4467,-180.1628 85.9192,-189.2349 90.3822,-183.8422"/>
</g>
<!-- [root] aws_subnet.ansari_public_subnet&#45;&gt;[root] aws_vpc.ansari_main -->
<g id="edge14" class="edge">
<title>[root] aws_subnet.ansari_public_subnet&#45;&gt;[root] aws_vpc.ansari_main</title>
<path fill="none" stroke="#000000" d="M412.7061,-215.9243C439.3839,-206.1243 472.5386,-193.945 500.5852,-183.6422"/>
<polygon fill="#000000" stroke="#000000" points="502.0938,-186.8167 510.2737,-180.0831 499.6801,-180.246 502.0938,-186.8167"/>
</g>
<!-- [root] aws_subnet.ansari_public_subnet&#45;&gt;[root] data.aws_availability_zones.available -->
<g id="edge15" class="edge">
<title>[root] aws_subnet.ansari_public_subnet&#45;&gt;[root] data.aws_availability_zones.available</title>
<path fill="none" stroke="#000000" d="M332.7142,-215.8314C317.1097,-206.6221 297.976,-195.3301 281.2697,-185.4706"/>
<polygon fill="#000000" stroke="#000000" points="282.6669,-182.2312 272.2759,-180.1628 279.1091,-188.2596 282.6669,-182.2312"/>
</g>
<!-- [root] var.public_cidrs -->
<g id="node19" class="node">
<title>[root] var.public_cidrs</title>
<polygon fill="none" stroke="#000000" points="468.5,-180 370.5,-180 370.5,-144 474.5,-144 474.5,-174 468.5,-180"/>
<polyline fill="none" stroke="#000000" points="468.5,-180 468.5,-174 "/>
<polyline fill="none" stroke="#000000" points="474.5,-174 468.5,-174 "/>
<text text-anchor="middle" x="422.5" y="-158.3" font-family="Times,serif" font-size="14.00" fill="#000000">var.public_cidrs</text>
</g>
<!-- [root] aws_subnet.ansari_public_subnet&#45;&gt;[root] var.public_cidrs -->
<g id="edge16" class="edge">
<title>[root] aws_subnet.ansari_public_subnet&#45;&gt;[root] var.public_cidrs</title>
<path fill="none" stroke="#000000" d="M378.3882,-215.8314C385.253,-207.454 393.5301,-197.3531 401.0511,-188.1749"/>
<polygon fill="#000000" stroke="#000000" points="403.7803,-190.3665 407.4114,-180.4133 398.3659,-185.9297 403.7803,-190.3665"/>
</g>
<!-- [root] provider.aws -->
<g id="node15" class="node">
<title>[root] provider.aws</title>
<polygon fill="none" stroke="#000000" points="330.5,-108 250.5666,-90 330.5,-72 410.4334,-90 330.5,-108"/>
<text text-anchor="middle" x="330.5" y="-86.3" font-family="Times,serif" font-size="14.00" fill="#000000">provider.aws</text>
</g>
<!-- [root] aws_vpc.ansari_main&#45;&gt;[root] provider.aws -->
<g id="edge17" class="edge">
<title>[root] aws_vpc.ansari_main&#45;&gt;[root] provider.aws</title>
<path fill="none" stroke="#000000" d="M502.0092,-143.9243C462.1663,-131.3973 409.9588,-114.9827 373.6569,-103.569"/>
<polygon fill="#000000" stroke="#000000" points="374.4526,-100.1503 363.8632,-100.4897 372.353,-106.828 374.4526,-100.1503"/>
</g>
<!-- [root] var.vpc_cidr -->
<g id="node21" class="node">
<title>[root] var.vpc_cidr</title>
<polygon fill="none" stroke="#000000" points="596,-108 517,-108 517,-72 602,-72 602,-102 596,-108"/>
<polyline fill="none" stroke="#000000" points="596,-108 596,-102 "/>
<polyline fill="none" stroke="#000000" points="602,-102 596,-102 "/>
<text text-anchor="middle" x="559.5" y="-86.3" font-family="Times,serif" font-size="14.00" fill="#000000">var.vpc_cidr</text>
</g>
<!-- [root] aws_vpc.ansari_main&#45;&gt;[root] var.vpc_cidr -->
<g id="edge18" class="edge">
<title>[root] aws_vpc.ansari_main&#45;&gt;[root] var.vpc_cidr</title>
<path fill="none" stroke="#000000" d="M559.5,-143.8314C559.5,-136.131 559.5,-126.9743 559.5,-118.4166"/>
<polygon fill="#000000" stroke="#000000" points="563.0001,-118.4132 559.5,-108.4133 556.0001,-118.4133 563.0001,-118.4132"/>
</g>
<!-- [root] data.aws_availability_zones.available&#45;&gt;[root] provider.aws -->
<g id="edge19" class="edge">
<title>[root] data.aws_availability_zones.available&#45;&gt;[root] provider.aws</title>
<path fill="none" stroke="#000000" d="M263.9585,-143.8314C276.3776,-133.7844 291.8611,-121.2585 304.7664,-110.8182"/>
<polygon fill="#000000" stroke="#000000" points="307.2435,-113.3162 312.8167,-104.3056 302.8409,-107.874 307.2435,-113.3162"/>
</g>
<!-- [root] output.aws_internet_gateway -->
<g id="node13" class="node">
<title>[root] output.aws_internet_gateway</title>
<polygon fill="none" stroke="#000000" points="1115.5,-324 945.5,-324 945.5,-288 1121.5,-288 1121.5,-318 1115.5,-324"/>
<polyline fill="none" stroke="#000000" points="1115.5,-324 1115.5,-318 "/>
<polyline fill="none" stroke="#000000" points="1121.5,-318 1115.5,-318 "/>
<text text-anchor="middle" x="1033.5" y="-302.3" font-family="Times,serif" font-size="14.00" fill="#000000">output.aws_internet_gateway</text>
</g>
<!-- [root] output.aws_internet_gateway&#45;&gt;[root] aws_internet_gateway.ansari_gw -->
<g id="edge26" class="edge">
<title>[root] output.aws_internet_gateway&#45;&gt;[root] aws_internet_gateway.ansari_gw</title>
<path fill="none" stroke="#000000" d="M945.4826,-289.6042C942.4523,-289.0597 939.4513,-288.5236 936.5,-288 866.5598,-275.5918 787.8758,-262.2654 726.1534,-251.9558"/>
<polygon fill="#000000" stroke="#000000" points="726.447,-248.4565 716.0073,-250.2627 725.2948,-255.361 726.447,-248.4565"/>
</g>
<!-- [root] output.aws_vpc_id -->
<g id="node14" class="node">
<title>[root] output.aws_vpc_id</title>
<polygon fill="none" stroke="#000000" points="1065,-252 952,-252 952,-216 1071,-216 1071,-246 1065,-252"/>
<polyline fill="none" stroke="#000000" points="1065,-252 1065,-246 "/>
<polyline fill="none" stroke="#000000" points="1071,-246 1065,-246 "/>
<text text-anchor="middle" x="1011.5" y="-230.3" font-family="Times,serif" font-size="14.00" fill="#000000">output.aws_vpc_id</text>
</g>
<!-- [root] output.aws_vpc_id&#45;&gt;[root] aws_vpc.ansari_main -->
<g id="edge27" class="edge">
<title>[root] output.aws_vpc_id&#45;&gt;[root] aws_vpc.ansari_main</title>
<path fill="none" stroke="#000000" d="M951.9441,-224.5132C870.9242,-211.6074 725.864,-188.5005 636.6139,-174.2836"/>
<polygon fill="#000000" stroke="#000000" points="636.9766,-170.7974 626.5505,-172.6806 635.8754,-177.7102 636.9766,-170.7974"/>
</g>
<!-- [root] var.aws_access_key -->
<g id="node16" class="node">
<title>[root] var.aws_access_key</title>
<polygon fill="none" stroke="#000000" points="244.5,-36 124.5,-36 124.5,0 250.5,0 250.5,-30 244.5,-36"/>
<polyline fill="none" stroke="#000000" points="244.5,-36 244.5,-30 "/>
<polyline fill="none" stroke="#000000" points="250.5,-30 244.5,-30 "/>
<text text-anchor="middle" x="187.5" y="-14.3" font-family="Times,serif" font-size="14.00" fill="#000000">var.aws_access_key</text>
</g>
<!-- [root] provider.aws&#45;&gt;[root] var.aws_access_key -->
<g id="edge32" class="edge">
<title>[root] provider.aws&#45;&gt;[root] var.aws_access_key</title>
<path fill="none" stroke="#000000" d="M305.5913,-77.4586C285.4399,-67.3124 256.5431,-52.7629 232.3787,-40.5963"/>
<polygon fill="#000000" stroke="#000000" points="233.8831,-37.4351 223.3773,-36.0641 230.7351,-43.6874 233.8831,-37.4351"/>
</g>
<!-- [root] var.aws_secret_key -->
<g id="node17" class="node">
<title>[root] var.aws_secret_key</title>
<polygon fill="none" stroke="#000000" points="386,-36 269,-36 269,0 392,0 392,-30 386,-36"/>
<polyline fill="none" stroke="#000000" points="386,-36 386,-30 "/>
<polyline fill="none" stroke="#000000" points="392,-30 386,-30 "/>
<text text-anchor="middle" x="330.5" y="-14.3" font-family="Times,serif" font-size="14.00" fill="#000000">var.aws_secret_key</text>
</g>
<!-- [root] provider.aws&#45;&gt;[root] var.aws_secret_key -->
<g id="edge33" class="edge">
<title>[root] provider.aws&#45;&gt;[root] var.aws_secret_key</title>
<path fill="none" stroke="#000000" d="M330.5,-71.8314C330.5,-64.131 330.5,-54.9743 330.5,-46.4166"/>
<polygon fill="#000000" stroke="#000000" points="334.0001,-46.4132 330.5,-36.4133 327.0001,-46.4133 334.0001,-46.4132"/>
</g>
<!-- [root] var.region -->
<g id="node20" class="node">
<title>[root] var.region</title>
<polygon fill="none" stroke="#000000" points="476.5,-36 410.5,-36 410.5,0 482.5,0 482.5,-30 476.5,-36"/>
<polyline fill="none" stroke="#000000" points="476.5,-36 476.5,-30 "/>
<polyline fill="none" stroke="#000000" points="482.5,-30 476.5,-30 "/>
<text text-anchor="middle" x="446.5" y="-14.3" font-family="Times,serif" font-size="14.00" fill="#000000">var.region</text>
</g>
<!-- [root] provider.aws&#45;&gt;[root] var.region -->
<g id="edge34" class="edge">
<title>[root] provider.aws&#45;&gt;[root] var.region</title>
<path fill="none" stroke="#000000" d="M352.0469,-76.6261C367.8843,-66.7959 389.82,-53.1807 408.566,-41.5453"/>
<polygon fill="#000000" stroke="#000000" points="410.5449,-44.4364 417.1955,-36.189 406.8533,-38.4889 410.5449,-44.4364"/>
</g>
<!-- [root] meta.count&#45;boundary (EachMode fixup) -->
<g id="node22" class="node">
<title>[root] meta.count&#45;boundary (EachMode fixup)</title>
<ellipse fill="none" stroke="#000000" cx="857.5" cy="-450" rx="176.5689" ry="18"/>
<text text-anchor="middle" x="857.5" y="-446.3" font-family="Times,serif" font-size="14.00" fill="#000000">[root] meta.count&#45;boundary (EachMode fixup)</text>
</g>
<!-- [root] meta.count&#45;boundary (EachMode fixup)&#45;&gt;[root] aws_route_table_association.private_subnet_assoc -->
<g id="edge20" class="edge">
<title>[root] meta.count&#45;boundary (EachMode fixup)&#45;&gt;[root] aws_route_table_association.private_subnet_assoc</title>
<path fill="none" stroke="#000000" d="M729.3269,-437.5981C581.4936,-423.2936 352.8845,-401.1724 301.6145,-396.1424"/>
<polygon fill="#000000" stroke="#000000" points="301.6957,-392.6333 291.3987,-395.1277 301.0038,-399.599 301.6957,-392.6333"/>
</g>
<!-- [root] meta.count&#45;boundary (EachMode fixup)&#45;&gt;[root] aws_route_table_association.public_subnet_assoc -->
<g id="edge21" class="edge">
<title>[root] meta.count&#45;boundary (EachMode fixup)&#45;&gt;[root] aws_route_table_association.public_subnet_assoc</title>
<path fill="none" stroke="#000000" d="M769.621,-434.3771C709.2104,-423.6374 628.5068,-409.2901 563.6329,-397.757"/>
<polygon fill="#000000" stroke="#000000" points="564.2303,-394.3084 553.7721,-396.0039 563.005,-401.2003 564.2303,-394.3084"/>
</g>
<!-- [root] meta.count&#45;boundary (EachMode fixup)&#45;&gt;[root] aws_security_group_rule.allow&#45;outbound -->
<g id="edge22" class="edge">
<title>[root] meta.count&#45;boundary (EachMode fixup)&#45;&gt;[root] aws_security_group_rule.allow&#45;outbound</title>
<path fill="none" stroke="#000000" d="M883.7251,-432.0171C897.005,-422.9109 913.3068,-411.7324 927.6286,-401.9118"/>
<polygon fill="#000000" stroke="#000000" points="929.9774,-404.5451 936.2453,-396.0032 926.0187,-398.772 929.9774,-404.5451"/>
</g>
<!-- [root] meta.count&#45;boundary (EachMode fixup)&#45;&gt;[root] aws_security_group_rule.allow&#45;ssh -->
<g id="edge23" class="edge">
<title>[root] meta.count&#45;boundary (EachMode fixup)&#45;&gt;[root] aws_security_group_rule.allow&#45;ssh</title>
<path fill="none" stroke="#000000" d="M823.1404,-432.2022C804.8181,-422.7115 782.0739,-410.9304 762.4748,-400.7783"/>
<polygon fill="#000000" stroke="#000000" points="763.9191,-397.5848 753.4298,-396.0931 760.6994,-403.8004 763.9191,-397.5848"/>
</g>
<!-- [root] meta.count&#45;boundary (EachMode fixup)&#45;&gt;[root] output.aws_internet_gateway -->
<g id="edge24" class="edge">
<title>[root] meta.count&#45;boundary (EachMode fixup)&#45;&gt;[root] output.aws_internet_gateway</title>
<path fill="none" stroke="#000000" d="M975.9733,-436.5793C1026.4167,-428.1937 1077.1801,-415.2395 1092.5,-396 1109.1879,-375.0426 1088.671,-349.3264 1067.3921,-330.7575"/>
<polygon fill="#000000" stroke="#000000" points="1069.5111,-327.9675 1059.5855,-324.2617 1065.0338,-333.3484 1069.5111,-327.9675"/>
</g>
<!-- [root] meta.count&#45;boundary (EachMode fixup)&#45;&gt;[root] output.aws_vpc_id -->
<g id="edge25" class="edge">
<title>[root] meta.count&#45;boundary (EachMode fixup)&#45;&gt;[root] output.aws_vpc_id</title>
<path fill="none" stroke="#000000" d="M974.9018,-436.5384C1030.6263,-427.8817 1089.3892,-414.6994 1109.5,-396 1145.3106,-362.7026 1156.9862,-329.1046 1130.5,-288 1119.0418,-270.2178 1100.1437,-258.2253 1080.7453,-250.1642"/>
<polygon fill="#000000" stroke="#000000" points="1081.8031,-246.8214 1071.2127,-246.5145 1079.3002,-253.3587 1081.8031,-246.8214"/>
</g>
<!-- [root] provider.aws (close) -->
<g id="node23" class="node">
<title>[root] provider.aws (close)</title>
<ellipse fill="none" stroke="#000000" cx="557.5" cy="-450" rx="105.0817" ry="18"/>
<text text-anchor="middle" x="557.5" y="-446.3" font-family="Times,serif" font-size="14.00" fill="#000000">[root] provider.aws (close)</text>
</g>
<!-- [root] provider.aws (close)&#45;&gt;[root] aws_route_table_association.private_subnet_assoc -->
<g id="edge28" class="edge">
<title>[root] provider.aws (close)&#45;&gt;[root] aws_route_table_association.private_subnet_assoc</title>
<path fill="none" stroke="#000000" d="M483.8427,-437.1278C421.2829,-426.1951 330.4839,-410.3273 258.6952,-397.7817"/>
<polygon fill="#000000" stroke="#000000" points="259.1499,-394.3082 248.6966,-396.0344 257.9448,-401.2037 259.1499,-394.3082"/>
</g>
<!-- [root] provider.aws (close)&#45;&gt;[root] aws_route_table_association.public_subnet_assoc -->
<g id="edge29" class="edge">
<title>[root] provider.aws (close)&#45;&gt;[root] aws_route_table_association.public_subnet_assoc</title>
<path fill="none" stroke="#000000" d="M531.8141,-432.3868C518.4155,-423.1992 501.8318,-411.8275 487.298,-401.8615"/>
<polygon fill="#000000" stroke="#000000" points="489.2438,-398.9519 479.0171,-396.1832 485.2851,-404.7251 489.2438,-398.9519"/>
</g>
<!-- [root] provider.aws (close)&#45;&gt;[root] aws_security_group_rule.allow&#45;outbound -->
<g id="edge30" class="edge">
<title>[root] provider.aws (close)&#45;&gt;[root] aws_security_group_rule.allow&#45;outbound</title>
<path fill="none" stroke="#000000" d="M630.8424,-436.9613C692.2195,-426.0499 780.7656,-410.3083 850.93,-397.8347"/>
<polygon fill="#000000" stroke="#000000" points="851.9104,-401.2153 861.1433,-396.019 850.6851,-394.3234 851.9104,-401.2153"/>
</g>
<!-- [root] provider.aws (close)&#45;&gt;[root] aws_security_group_rule.allow&#45;ssh -->
<g id="edge31" class="edge">
<title>[root] provider.aws (close)&#45;&gt;[root] aws_security_group_rule.allow&#45;ssh</title>
<path fill="none" stroke="#000000" d="M595.2473,-433.1192C617.2371,-423.2853 645.2226,-410.77 668.9671,-400.1513"/>
<polygon fill="#000000" stroke="#000000" points="670.4749,-403.3112 678.1748,-396.0336 667.6172,-396.9211 670.4749,-403.3112"/>
</g>
<!-- [root] root -->
<g id="node24" class="node">
<title>[root] root</title>
<ellipse fill="none" stroke="#000000" cx="707.5" cy="-522" rx="47.3916" ry="18"/>
<text text-anchor="middle" x="707.5" y="-518.3" font-family="Times,serif" font-size="14.00" fill="#000000">[root] root</text>
</g>
<!-- [root] root&#45;&gt;[root] meta.count&#45;boundary (EachMode fixup) -->
<g id="edge35" class="edge">
<title>[root] root&#45;&gt;[root] meta.count&#45;boundary (EachMode fixup)</title>
<path fill="none" stroke="#000000" d="M737.1352,-507.7751C758.4091,-497.5636 787.4834,-483.608 811.7274,-471.9708"/>
<polygon fill="#000000" stroke="#000000" points="813.2557,-475.1196 820.7564,-467.6369 810.2266,-468.809 813.2557,-475.1196"/>
</g>
<!-- [root] root&#45;&gt;[root] provider.aws (close) -->
<g id="edge36" class="edge">
<title>[root] root&#45;&gt;[root] provider.aws (close)</title>
<path fill="none" stroke="#000000" d="M677.8648,-507.7751C656.2123,-497.3819 626.4794,-483.1101 601.9831,-471.3519"/>
<polygon fill="#000000" stroke="#000000" points="603.4085,-468.1538 592.8787,-466.9818 600.3794,-474.4645 603.4085,-468.1538"/>
</g>
</g>
</svg>
