<?xml version="1.0" encoding="UTF-8" standalone="no"?>
<!DOCTYPE svg PUBLIC "-//W3C//DTD SVG 1.1//EN"
 "http://www.w3.org/Graphics/SVG/1.1/DTD/svg11.dtd">
<!-- Generated by graphviz version 2.40.1 (20161225.0304)
 -->
<!-- Title: %3 Pages: 1 -->
<svg width="2552pt" height="620pt"
 viewBox="0.00 0.00 2551.86 620.00" xmlns="http://www.w3.org/2000/svg" xmlns:xlink="http://www.w3.org/1999/xlink">
<g id="graph0" class="graph" transform="scale(1 1) rotate(0) translate(4 616)">
<title>%3</title>
<polygon fill="#ffffff" stroke="transparent" points="-4,4 -4,-616 2547.8648,-616 2547.8648,4 -4,4"/>
<!-- [root] module.ec2.aws_instance.my&#45;test&#45;instance -->
<g id="node1" class="node">
<title>[root] module.ec2.aws_instance.my&#45;test&#45;instance</title>
<polygon fill="none" stroke="#000000" points="970.8648,-468 720.8648,-468 720.8648,-432 970.8648,-432 970.8648,-468"/>
<text text-anchor="middle" x="845.8648" y="-446.3" font-family="Times,serif" font-size="14.00" fill="#000000">module.ec2.aws_instance.my&#45;test&#45;instance</text>
</g>
<!-- [root] module.ec2.aws_key_pair.ansari&#45;key -->
<g id="node2" class="node">
<title>[root] module.ec2.aws_key_pair.ansari&#45;key</title>
<polygon fill="none" stroke="#000000" points="855.3648,-396 636.3648,-396 636.3648,-360 855.3648,-360 855.3648,-396"/>
<text text-anchor="middle" x="745.8648" y="-374.3" font-family="Times,serif" font-size="14.00" fill="#000000">module.ec2.aws_key_pair.ansari&#45;key</text>
</g>
<!-- [root] module.ec2.aws_instance.my&#45;test&#45;instance&#45;&gt;[root] module.ec2.aws_key_pair.ansari&#45;key -->
<g id="edge8" class="edge">
<title>[root] module.ec2.aws_instance.my&#45;test&#45;instance&#45;&gt;[root] module.ec2.aws_key_pair.ansari&#45;key</title>
<path fill="none" stroke="#000000" d="M820.6305,-431.8314C808.0768,-422.7927 792.7364,-411.7476 779.2256,-402.0198"/>
<polygon fill="#000000" stroke="#000000" points="781.2514,-399.1655 771.0909,-396.1628 777.1612,-404.8463 781.2514,-399.1655"/>
</g>
<!-- [root] module.ec2.data.aws_ami.centos -->
<g id="node3" class="node">
<title>[root] module.ec2.data.aws_ami.centos</title>
<polygon fill="none" stroke="#000000" points="618.3648,-396 421.3648,-396 421.3648,-360 618.3648,-360 618.3648,-396"/>
<text text-anchor="middle" x="519.8648" y="-374.3" font-family="Times,serif" font-size="14.00" fill="#000000">module.ec2.data.aws_ami.centos</text>
</g>
<!-- [root] module.ec2.aws_instance.my&#45;test&#45;instance&#45;&gt;[root] module.ec2.data.aws_ami.centos -->
<g id="edge9" class="edge">
<title>[root] module.ec2.aws_instance.my&#45;test&#45;instance&#45;&gt;[root] module.ec2.data.aws_ami.centos</title>
<path fill="none" stroke="#000000" d="M764.022,-431.9243C717.624,-421.6769 659.4472,-408.828 611.5217,-398.2432"/>
<polygon fill="#000000" stroke="#000000" points="611.9779,-394.7597 601.4584,-396.0207 610.4683,-401.595 611.9779,-394.7597"/>
</g>
<!-- [root] module.ec2.data.template_file.init -->
<g id="node4" class="node">
<title>[root] module.ec2.data.template_file.init</title>
<polygon fill="none" stroke="#000000" points="205.8648,-396 1.8648,-396 1.8648,-360 205.8648,-360 205.8648,-396"/>
<text text-anchor="middle" x="103.8648" y="-374.3" font-family="Times,serif" font-size="14.00" fill="#000000">module.ec2.data.template_file.init</text>
</g>
<!-- [root] module.ec2.aws_instance.my&#45;test&#45;instance&#45;&gt;[root] module.ec2.data.template_file.init -->
<g id="edge10" class="edge">
<title>[root] module.ec2.aws_instance.my&#45;test&#45;instance&#45;&gt;[root] module.ec2.data.template_file.init</title>
<path fill="none" stroke="#000000" d="M720.7625,-442.0858C595.5449,-433.5212 397.1858,-418.2113 216.0209,-396.0938"/>
<polygon fill="#000000" stroke="#000000" points="216.3918,-392.6131 206.0392,-394.8661 215.5371,-399.5608 216.3918,-392.6131"/>
</g>
<!-- [root] module.ec2.var.instance_type -->
<g id="node6" class="node">
<title>[root] module.ec2.var.instance_type</title>
<polygon fill="none" stroke="#000000" points="397.3648,-396 224.3648,-396 224.3648,-360 403.3648,-360 403.3648,-390 397.3648,-396"/>
<polyline fill="none" stroke="#000000" points="397.3648,-396 397.3648,-390 "/>
<polyline fill="none" stroke="#000000" points="403.3648,-390 397.3648,-390 "/>
<text text-anchor="middle" x="313.8648" y="-374.3" font-family="Times,serif" font-size="14.00" fill="#000000">module.ec2.var.instance_type</text>
</g>
<!-- [root] module.ec2.aws_instance.my&#45;test&#45;instance&#45;&gt;[root] module.ec2.var.instance_type -->
<g id="edge11" class="edge">
<title>[root] module.ec2.aws_instance.my&#45;test&#45;instance&#45;&gt;[root] module.ec2.var.instance_type</title>
<path fill="none" stroke="#000000" d="M720.7232,-436.3715C636.5076,-426.7393 522.7456,-412.8407 413.7449,-396.2494"/>
<polygon fill="#000000" stroke="#000000" points="413.966,-392.7425 403.5513,-394.6877 412.9059,-399.6618 413.966,-392.7425"/>
</g>
<!-- [root] module.ec2.var.security_group -->
<g id="node9" class="node">
<title>[root] module.ec2.var.security_group</title>
<polygon fill="none" stroke="#000000" points="1217.8648,-396 1037.8648,-396 1037.8648,-360 1223.8648,-360 1223.8648,-390 1217.8648,-396"/>
<polyline fill="none" stroke="#000000" points="1217.8648,-396 1217.8648,-390 "/>
<polyline fill="none" stroke="#000000" points="1223.8648,-390 1217.8648,-390 "/>
<text text-anchor="middle" x="1130.8648" y="-374.3" font-family="Times,serif" font-size="14.00" fill="#000000">module.ec2.var.security_group</text>
</g>
<!-- [root] module.ec2.aws_instance.my&#45;test&#45;instance&#45;&gt;[root] module.ec2.var.security_group -->
<g id="edge12" class="edge">
<title>[root] module.ec2.aws_instance.my&#45;test&#45;instance&#45;&gt;[root] module.ec2.var.security_group</title>
<path fill="none" stroke="#000000" d="M917.4144,-431.9243C957.5614,-421.7819 1007.7956,-409.0912 1049.4441,-398.5694"/>
<polygon fill="#000000" stroke="#000000" points="1050.4476,-401.926 1059.2857,-396.0831 1048.733,-395.1392 1050.4476,-401.926"/>
</g>
<!-- [root] module.ec2.var.subnets -->
<g id="node10" class="node">
<title>[root] module.ec2.var.subnets</title>
<polygon fill="none" stroke="#000000" points="1013.8648,-396 873.8648,-396 873.8648,-360 1019.8648,-360 1019.8648,-390 1013.8648,-396"/>
<polyline fill="none" stroke="#000000" points="1013.8648,-396 1013.8648,-390 "/>
<polyline fill="none" stroke="#000000" points="1019.8648,-390 1013.8648,-390 "/>
<text text-anchor="middle" x="946.8648" y="-374.3" font-family="Times,serif" font-size="14.00" fill="#000000">module.ec2.var.subnets</text>
</g>
<!-- [root] module.ec2.aws_instance.my&#45;test&#45;instance&#45;&gt;[root] module.ec2.var.subnets -->
<g id="edge13" class="edge">
<title>[root] module.ec2.aws_instance.my&#45;test&#45;instance&#45;&gt;[root] module.ec2.var.subnets</title>
<path fill="none" stroke="#000000" d="M871.3513,-431.8314C884.0306,-422.7927 899.5244,-411.7476 913.1703,-402.0198"/>
<polygon fill="#000000" stroke="#000000" points="915.2752,-404.8176 921.3864,-396.1628 911.2119,-399.1176 915.2752,-404.8176"/>
</g>
<!-- [root] module.ec2.provider.aws -->
<g id="node5" class="node">
<title>[root] module.ec2.provider.aws</title>
<polygon fill="none" stroke="#000000" points="493.8648,-324 351.426,-306 493.8648,-288 636.3035,-306 493.8648,-324"/>
<text text-anchor="middle" x="493.8648" y="-302.3" font-family="Times,serif" font-size="14.00" fill="#000000">module.ec2.provider.aws</text>
</g>
<!-- [root] module.ec2.aws_key_pair.ansari&#45;key&#45;&gt;[root] module.ec2.provider.aws -->
<g id="edge14" class="edge">
<title>[root] module.ec2.aws_key_pair.ansari&#45;key&#45;&gt;[root] module.ec2.provider.aws</title>
<path fill="none" stroke="#000000" d="M682.5998,-359.9243C640.9342,-348.0198 586.9809,-332.6046 547.438,-321.3066"/>
<polygon fill="#000000" stroke="#000000" points="548.2882,-317.9096 537.7114,-318.5276 546.3651,-324.6402 548.2882,-317.9096"/>
</g>
<!-- [root] module.ec2.var.my_public_key -->
<g id="node7" class="node">
<title>[root] module.ec2.var.my_public_key</title>
<polygon fill="none" stroke="#000000" points="837.8648,-324 653.8648,-324 653.8648,-288 843.8648,-288 843.8648,-318 837.8648,-324"/>
<polyline fill="none" stroke="#000000" points="837.8648,-324 837.8648,-318 "/>
<polyline fill="none" stroke="#000000" points="843.8648,-318 837.8648,-318 "/>
<text text-anchor="middle" x="748.8648" y="-302.3" font-family="Times,serif" font-size="14.00" fill="#000000">module.ec2.var.my_public_key</text>
</g>
<!-- [root] module.ec2.aws_key_pair.ansari&#45;key&#45;&gt;[root] module.ec2.var.my_public_key -->
<g id="edge15" class="edge">
<title>[root] module.ec2.aws_key_pair.ansari&#45;key&#45;&gt;[root] module.ec2.var.my_public_key</title>
<path fill="none" stroke="#000000" d="M746.6218,-359.8314C746.9426,-352.131 747.3242,-342.9743 747.6807,-334.4166"/>
<polygon fill="#000000" stroke="#000000" points="751.1781,-334.5503 748.0976,-324.4133 744.1842,-334.2589 751.1781,-334.5503"/>
</g>
<!-- [root] module.ec2.data.aws_ami.centos&#45;&gt;[root] module.ec2.provider.aws -->
<g id="edge16" class="edge">
<title>[root] module.ec2.data.aws_ami.centos&#45;&gt;[root] module.ec2.provider.aws</title>
<path fill="none" stroke="#000000" d="M513.3039,-359.8314C510.3746,-351.7196 506.8618,-341.9918 503.633,-333.0505"/>
<polygon fill="#000000" stroke="#000000" points="506.8429,-331.6345 500.1545,-323.4177 500.2591,-334.012 506.8429,-331.6345"/>
</g>
<!-- [root] provider.template -->
<g id="node34" class="node">
<title>[root] provider.template</title>
<polygon fill="none" stroke="#000000" points="103.8648,-324 .1351,-306 103.8648,-288 207.5945,-306 103.8648,-324"/>
<text text-anchor="middle" x="103.8648" y="-302.3" font-family="Times,serif" font-size="14.00" fill="#000000">provider.template</text>
</g>
<!-- [root] module.ec2.data.template_file.init&#45;&gt;[root] provider.template -->
<g id="edge17" class="edge">
<title>[root] module.ec2.data.template_file.init&#45;&gt;[root] provider.template</title>
<path fill="none" stroke="#000000" d="M103.8648,-359.8314C103.8648,-352.131 103.8648,-342.9743 103.8648,-334.4166"/>
<polygon fill="#000000" stroke="#000000" points="107.3649,-334.4132 103.8648,-324.4133 100.3649,-334.4133 107.3649,-334.4132"/>
</g>
<!-- [root] module.ec2.var.region -->
<g id="node8" class="node">
<title>[root] module.ec2.var.region</title>
<polygon fill="none" stroke="#000000" points="557.8648,-252 423.8648,-252 423.8648,-216 563.8648,-216 563.8648,-246 557.8648,-252"/>
<polyline fill="none" stroke="#000000" points="557.8648,-252 557.8648,-246 "/>
<polyline fill="none" stroke="#000000" points="563.8648,-246 557.8648,-246 "/>
<text text-anchor="middle" x="493.8648" y="-230.3" font-family="Times,serif" font-size="14.00" fill="#000000">module.ec2.var.region</text>
</g>
<!-- [root] module.ec2.provider.aws&#45;&gt;[root] module.ec2.var.region -->
<g id="edge19" class="edge">
<title>[root] module.ec2.provider.aws&#45;&gt;[root] module.ec2.var.region</title>
<path fill="none" stroke="#000000" d="M493.8648,-287.8314C493.8648,-280.131 493.8648,-270.9743 493.8648,-262.4166"/>
<polygon fill="#000000" stroke="#000000" points="497.3649,-262.4132 493.8648,-252.4133 490.3649,-262.4133 497.3649,-262.4132"/>
</g>
<!-- [root] module.vpc.output.security_group -->
<g id="node25" class="node">
<title>[root] module.vpc.output.security_group</title>
<polygon fill="none" stroke="#000000" points="1279.8648,-324 1081.8648,-324 1081.8648,-288 1285.8648,-288 1285.8648,-318 1279.8648,-324"/>
<polyline fill="none" stroke="#000000" points="1279.8648,-324 1279.8648,-318 "/>
<polyline fill="none" stroke="#000000" points="1285.8648,-318 1279.8648,-318 "/>
<text text-anchor="middle" x="1183.8648" y="-302.3" font-family="Times,serif" font-size="14.00" fill="#000000">module.vpc.output.security_group</text>
</g>
<!-- [root] module.ec2.var.security_group&#45;&gt;[root] module.vpc.output.security_group -->
<g id="edge20" class="edge">
<title>[root] module.ec2.var.security_group&#45;&gt;[root] module.vpc.output.security_group</title>
<path fill="none" stroke="#000000" d="M1144.2389,-359.8314C1150.281,-351.6232 1157.541,-341.7606 1164.1868,-332.7323"/>
<polygon fill="#000000" stroke="#000000" points="1167.201,-334.5415 1170.3106,-324.4133 1161.5637,-330.3918 1167.201,-334.5415"/>
</g>
<!-- [root] module.vpc.output.subnets -->
<g id="node26" class="node">
<title>[root] module.vpc.output.subnets</title>
<polygon fill="none" stroke="#000000" points="1019.8648,-324 861.8648,-324 861.8648,-288 1025.8648,-288 1025.8648,-318 1019.8648,-324"/>
<polyline fill="none" stroke="#000000" points="1019.8648,-324 1019.8648,-318 "/>
<polyline fill="none" stroke="#000000" points="1025.8648,-318 1019.8648,-318 "/>
<text text-anchor="middle" x="943.8648" y="-302.3" font-family="Times,serif" font-size="14.00" fill="#000000">module.vpc.output.subnets</text>
</g>
<!-- [root] module.ec2.var.subnets&#45;&gt;[root] module.vpc.output.subnets -->
<g id="edge21" class="edge">
<title>[root] module.ec2.var.subnets&#45;&gt;[root] module.vpc.output.subnets</title>
<path fill="none" stroke="#000000" d="M946.1077,-359.8314C945.7869,-352.131 945.4054,-342.9743 945.0488,-334.4166"/>
<polygon fill="#000000" stroke="#000000" points="948.5454,-334.2589 944.632,-324.4133 941.5514,-334.5503 948.5454,-334.2589"/>
</g>
<!-- [root] module.vpc.aws_default_route_table.ansari_private_route -->
<g id="node11" class="node">
<title>[root] module.vpc.aws_default_route_table.ansari_private_route</title>
<polygon fill="none" stroke="#000000" points="2124.8648,-252 1792.8648,-252 1792.8648,-216 2124.8648,-216 2124.8648,-252"/>
<text text-anchor="middle" x="1958.8648" y="-230.3" font-family="Times,serif" font-size="14.00" fill="#000000">module.vpc.aws_default_route_table.ansari_private_route</text>
</g>
<!-- [root] module.vpc.aws_vpc.ansari_main -->
<g id="node21" class="node">
<title>[root] module.vpc.aws_vpc.ansari_main</title>
<polygon fill="none" stroke="#000000" points="1901.3648,-180 1698.3648,-180 1698.3648,-144 1901.3648,-144 1901.3648,-180"/>
<text text-anchor="middle" x="1799.8648" y="-158.3" font-family="Times,serif" font-size="14.00" fill="#000000">module.vpc.aws_vpc.ansari_main</text>
</g>
<!-- [root] module.vpc.aws_default_route_table.ansari_private_route&#45;&gt;[root] module.vpc.aws_vpc.ansari_main -->
<g id="edge22" class="edge">
<title>[root] module.vpc.aws_default_route_table.ansari_private_route&#45;&gt;[root] module.vpc.aws_vpc.ansari_main</title>
<path fill="none" stroke="#000000" d="M1918.7424,-215.8314C1897.5716,-206.2446 1871.4165,-194.4008 1849.0344,-184.2655"/>
<polygon fill="#000000" stroke="#000000" points="1850.252,-180.9748 1839.6987,-180.038 1847.3644,-187.3515 1850.252,-180.9748"/>
</g>
<!-- [root] module.vpc.aws_internet_gateway.ansari_gw -->
<g id="node12" class="node">
<title>[root] module.vpc.aws_internet_gateway.ansari_gw</title>
<polygon fill="none" stroke="#000000" points="1487.3648,-252 1222.3648,-252 1222.3648,-216 1487.3648,-216 1487.3648,-252"/>
<text text-anchor="middle" x="1354.8648" y="-230.3" font-family="Times,serif" font-size="14.00" fill="#000000">module.vpc.aws_internet_gateway.ansari_gw</text>
</g>
<!-- [root] module.vpc.aws_internet_gateway.ansari_gw&#45;&gt;[root] module.vpc.aws_vpc.ansari_main -->
<g id="edge23" class="edge">
<title>[root] module.vpc.aws_internet_gateway.ansari_gw&#45;&gt;[root] module.vpc.aws_vpc.ansari_main</title>
<path fill="none" stroke="#000000" d="M1466.581,-215.9516C1528.81,-205.895 1607.9866,-193.0941 1687.9751,-180.1437"/>
<polygon fill="#000000" stroke="#000000" points="1688.9295,-183.5348 1698.2415,-178.4814 1687.8107,-176.6248 1688.9295,-183.5348"/>
</g>
<!-- [root] module.vpc.aws_route_table.ansari_public_route -->
<g id="node13" class="node">
<title>[root] module.vpc.aws_route_table.ansari_public_route</title>
<polygon fill="none" stroke="#000000" points="1625.8648,-324 1341.8648,-324 1341.8648,-288 1625.8648,-288 1625.8648,-324"/>
<text text-anchor="middle" x="1483.8648" y="-302.3" font-family="Times,serif" font-size="14.00" fill="#000000">module.vpc.aws_route_table.ansari_public_route</text>
</g>
<!-- [root] module.vpc.aws_route_table.ansari_public_route&#45;&gt;[root] module.vpc.aws_internet_gateway.ansari_gw -->
<g id="edge24" class="edge">
<title>[root] module.vpc.aws_route_table.ansari_public_route&#45;&gt;[root] module.vpc.aws_internet_gateway.ansari_gw</title>
<path fill="none" stroke="#000000" d="M1451.3126,-287.8314C1434.66,-278.5368 1414.2062,-267.1208 1396.4263,-257.1971"/>
<polygon fill="#000000" stroke="#000000" points="1397.8443,-253.9803 1387.4065,-252.1628 1394.4327,-260.0927 1397.8443,-253.9803"/>
</g>
<!-- [root] module.vpc.aws_route_table_association.private_subnet_assoc -->
<g id="node14" class="node">
<title>[root] module.vpc.aws_route_table_association.private_subnet_assoc</title>
<polygon fill="none" stroke="#000000" points="2373.3648,-324 2014.3648,-324 2014.3648,-288 2373.3648,-288 2373.3648,-324"/>
<text text-anchor="middle" x="2193.8648" y="-302.3" font-family="Times,serif" font-size="14.00" fill="#000000">module.vpc.aws_route_table_association.private_subnet_assoc</text>
</g>
<!-- [root] module.vpc.aws_route_table_association.private_subnet_assoc&#45;&gt;[root] module.vpc.aws_default_route_table.ansari_private_route -->
<g id="edge25" class="edge">
<title>[root] module.vpc.aws_route_table_association.private_subnet_assoc&#45;&gt;[root] module.vpc.aws_default_route_table.ansari_private_route</title>
<path fill="none" stroke="#000000" d="M2134.8677,-287.9243C2102.3228,-277.9531 2061.7387,-265.5188 2027.7459,-255.104"/>
<polygon fill="#000000" stroke="#000000" points="2028.4728,-251.6662 2017.8861,-252.0831 2026.4221,-258.3591 2028.4728,-251.6662"/>
</g>
<!-- [root] module.vpc.aws_subnet.ansari_private_subnet -->
<g id="node19" class="node">
<title>[root] module.vpc.aws_subnet.ansari_private_subnet</title>
<polygon fill="none" stroke="#000000" points="2412.8648,-252 2142.8648,-252 2142.8648,-216 2412.8648,-216 2412.8648,-252"/>
<text text-anchor="middle" x="2277.8648" y="-230.3" font-family="Times,serif" font-size="14.00" fill="#000000">module.vpc.aws_subnet.ansari_private_subnet</text>
</g>
<!-- [root] module.vpc.aws_route_table_association.private_subnet_assoc&#45;&gt;[root] module.vpc.aws_subnet.ansari_private_subnet -->
<g id="edge26" class="edge">
<title>[root] module.vpc.aws_route_table_association.private_subnet_assoc&#45;&gt;[root] module.vpc.aws_subnet.ansari_private_subnet</title>
<path fill="none" stroke="#000000" d="M2215.0615,-287.8314C2225.3082,-279.0485 2237.765,-268.3712 2248.8744,-258.8489"/>
<polygon fill="#000000" stroke="#000000" points="2251.36,-261.3282 2256.6748,-252.1628 2246.8044,-256.0134 2251.36,-261.3282"/>
</g>
<!-- [root] module.vpc.aws_route_table_association.public_subnet_assoc -->
<g id="node15" class="node">
<title>[root] module.vpc.aws_route_table_association.public_subnet_assoc</title>
<polygon fill="none" stroke="#000000" points="1635.8648,-396 1279.8648,-396 1279.8648,-360 1635.8648,-360 1635.8648,-396"/>
<text text-anchor="middle" x="1457.8648" y="-374.3" font-family="Times,serif" font-size="14.00" fill="#000000">module.vpc.aws_route_table_association.public_subnet_assoc</text>
</g>
<!-- [root] module.vpc.aws_route_table_association.public_subnet_assoc&#45;&gt;[root] module.vpc.aws_route_table.ansari_public_route -->
<g id="edge27" class="edge">
<title>[root] module.vpc.aws_route_table_association.public_subnet_assoc&#45;&gt;[root] module.vpc.aws_route_table.ansari_public_route</title>
<path fill="none" stroke="#000000" d="M1464.4257,-359.8314C1467.2675,-351.9617 1470.6585,-342.5712 1473.8066,-333.8533"/>
<polygon fill="#000000" stroke="#000000" points="1477.111,-335.0076 1477.2155,-324.4133 1470.5271,-332.63 1477.111,-335.0076"/>
</g>
<!-- [root] module.vpc.aws_subnet.ansari_public_subnet -->
<g id="node20" class="node">
<title>[root] module.vpc.aws_subnet.ansari_public_subnet</title>
<polygon fill="none" stroke="#000000" points="1189.8648,-252 923.8648,-252 923.8648,-216 1189.8648,-216 1189.8648,-252"/>
<text text-anchor="middle" x="1056.8648" y="-230.3" font-family="Times,serif" font-size="14.00" fill="#000000">module.vpc.aws_subnet.ansari_public_subnet</text>
</g>
<!-- [root] module.vpc.aws_route_table_association.public_subnet_assoc&#45;&gt;[root] module.vpc.aws_subnet.ansari_public_subnet -->
<g id="edge28" class="edge">
<title>[root] module.vpc.aws_route_table_association.public_subnet_assoc&#45;&gt;[root] module.vpc.aws_subnet.ansari_public_subnet</title>
<path fill="none" stroke="#000000" d="M1279.7313,-362.5274C1186.5514,-352.7539 1088.5657,-339.1367 1072.8648,-324 1056.5946,-308.3145 1053.4747,-282.2302 1053.9095,-262.17"/>
<polygon fill="#000000" stroke="#000000" points="1057.4125,-262.2003 1054.4326,-252.0332 1050.4218,-261.8395 1057.4125,-262.2003"/>
</g>
<!-- [root] module.vpc.aws_security_group.my&#45;ansari&#45;sg -->
<g id="node16" class="node">
<title>[root] module.vpc.aws_security_group.my&#45;ansari&#45;sg</title>
<polygon fill="none" stroke="#000000" points="1774.3648,-252 1505.3648,-252 1505.3648,-216 1774.3648,-216 1774.3648,-252"/>
<text text-anchor="middle" x="1639.8648" y="-230.3" font-family="Times,serif" font-size="14.00" fill="#000000">module.vpc.aws_security_group.my&#45;ansari&#45;sg</text>
</g>
<!-- [root] module.vpc.aws_security_group.my&#45;ansari&#45;sg&#45;&gt;[root] module.vpc.aws_vpc.ansari_main -->
<g id="edge29" class="edge">
<title>[root] module.vpc.aws_security_group.my&#45;ansari&#45;sg&#45;&gt;[root] module.vpc.aws_vpc.ansari_main</title>
<path fill="none" stroke="#000000" d="M1680.2395,-215.8314C1701.5435,-206.2446 1727.8631,-194.4008 1750.3859,-184.2655"/>
<polygon fill="#000000" stroke="#000000" points="1752.0974,-187.3334 1759.7803,-180.038 1749.2248,-180.95 1752.0974,-187.3334"/>
</g>
<!-- [root] module.vpc.aws_security_group_rule.allow&#45;outbound -->
<g id="node17" class="node">
<title>[root] module.vpc.aws_security_group_rule.allow&#45;outbound</title>
<polygon fill="none" stroke="#000000" points="1965.3648,-396 1654.3648,-396 1654.3648,-360 1965.3648,-360 1965.3648,-396"/>
<text text-anchor="middle" x="1809.8648" y="-374.3" font-family="Times,serif" font-size="14.00" fill="#000000">module.vpc.aws_security_group_rule.allow&#45;outbound</text>
</g>
<!-- [root] module.vpc.aws_security_group_rule.allow&#45;outbound&#45;&gt;[root] module.vpc.aws_security_group.my&#45;ansari&#45;sg -->
<g id="edge30" class="edge">
<title>[root] module.vpc.aws_security_group_rule.allow&#45;outbound&#45;&gt;[root] module.vpc.aws_security_group.my&#45;ansari&#45;sg</title>
<path fill="none" stroke="#000000" d="M1788.3342,-359.7623C1758.0609,-334.119 1702.8323,-287.3372 1668.9373,-258.6262"/>
<polygon fill="#000000" stroke="#000000" points="1671.1133,-255.8824 1661.2206,-252.0896 1666.5888,-261.2238 1671.1133,-255.8824"/>
</g>
<!-- [root] module.vpc.aws_security_group_rule.allow&#45;ssh -->
<g id="node18" class="node">
<title>[root] module.vpc.aws_security_group_rule.allow&#45;ssh</title>
<polygon fill="none" stroke="#000000" points="2299.3648,-396 2022.3648,-396 2022.3648,-360 2299.3648,-360 2299.3648,-396"/>
<text text-anchor="middle" x="2160.8648" y="-374.3" font-family="Times,serif" font-size="14.00" fill="#000000">module.vpc.aws_security_group_rule.allow&#45;ssh</text>
</g>
<!-- [root] module.vpc.aws_security_group_rule.allow&#45;ssh&#45;&gt;[root] module.vpc.aws_security_group.my&#45;ansari&#45;sg -->
<g id="edge31" class="edge">
<title>[root] module.vpc.aws_security_group_rule.allow&#45;ssh&#45;&gt;[root] module.vpc.aws_security_group.my&#45;ansari&#45;sg</title>
<path fill="none" stroke="#000000" d="M2095.6704,-359.9808C1998.7282,-333.1868 1817.0501,-282.9725 1714.7736,-254.7042"/>
<polygon fill="#000000" stroke="#000000" points="1715.7003,-251.3291 1705.1292,-252.0385 1713.8354,-258.0762 1715.7003,-251.3291"/>
</g>
<!-- [root] module.vpc.aws_subnet.ansari_private_subnet&#45;&gt;[root] module.vpc.aws_vpc.ansari_main -->
<g id="edge32" class="edge">
<title>[root] module.vpc.aws_subnet.ansari_private_subnet&#45;&gt;[root] module.vpc.aws_vpc.ansari_main</title>
<path fill="none" stroke="#000000" d="M2158.1703,-215.9707C2082.6337,-204.5928 1985.7127,-189.9938 1911.7241,-178.8491"/>
<polygon fill="#000000" stroke="#000000" points="1911.8505,-175.3287 1901.4407,-177.3001 1910.8078,-182.2507 1911.8505,-175.3287"/>
</g>
<!-- [root] module.vpc.data.aws_availability_zones.available -->
<g id="node22" class="node">
<title>[root] module.vpc.data.aws_availability_zones.available</title>
<polygon fill="none" stroke="#000000" points="1679.8648,-180 1389.8648,-180 1389.8648,-144 1679.8648,-144 1679.8648,-180"/>
<text text-anchor="middle" x="1534.8648" y="-158.3" font-family="Times,serif" font-size="14.00" fill="#000000">module.vpc.data.aws_availability_zones.available</text>
</g>
<!-- [root] module.vpc.aws_subnet.ansari_private_subnet&#45;&gt;[root] module.vpc.data.aws_availability_zones.available -->
<g id="edge33" class="edge">
<title>[root] module.vpc.aws_subnet.ansari_private_subnet&#45;&gt;[root] module.vpc.data.aws_availability_zones.available</title>
<path fill="none" stroke="#000000" d="M2142.5974,-216.918C2139.6607,-216.6033 2136.7469,-216.2968 2133.8648,-216 1940.1951,-196.0537 1888.5926,-199.3054 1690.231,-180.0125"/>
<polygon fill="#000000" stroke="#000000" points="1690.3516,-176.5077 1680.058,-179.0159 1689.6691,-183.4743 1690.3516,-176.5077"/>
</g>
<!-- [root] module.vpc.var.private_cidrs -->
<g id="node30" class="node">
<title>[root] module.vpc.var.private_cidrs</title>
<polygon fill="none" stroke="#000000" points="2359.8648,-180 2189.8648,-180 2189.8648,-144 2365.8648,-144 2365.8648,-174 2359.8648,-180"/>
<polyline fill="none" stroke="#000000" points="2359.8648,-180 2359.8648,-174 "/>
<polyline fill="none" stroke="#000000" points="2365.8648,-174 2359.8648,-174 "/>
<text text-anchor="middle" x="2277.8648" y="-158.3" font-family="Times,serif" font-size="14.00" fill="#000000">module.vpc.var.private_cidrs</text>
</g>
<!-- [root] module.vpc.aws_subnet.ansari_private_subnet&#45;&gt;[root] module.vpc.var.private_cidrs -->
<g id="edge34" class="edge">
<title>[root] module.vpc.aws_subnet.ansari_private_subnet&#45;&gt;[root] module.vpc.var.private_cidrs</title>
<path fill="none" stroke="#000000" d="M2277.8648,-215.8314C2277.8648,-208.131 2277.8648,-198.9743 2277.8648,-190.4166"/>
<polygon fill="#000000" stroke="#000000" points="2281.3649,-190.4132 2277.8648,-180.4133 2274.3649,-190.4133 2281.3649,-190.4132"/>
</g>
<!-- [root] module.vpc.aws_subnet.ansari_public_subnet&#45;&gt;[root] module.vpc.aws_vpc.ansari_main -->
<g id="edge35" class="edge">
<title>[root] module.vpc.aws_subnet.ansari_public_subnet&#45;&gt;[root] module.vpc.aws_vpc.ansari_main</title>
<path fill="none" stroke="#000000" d="M1190.0129,-218.2815C1197.7413,-217.4797 1205.4014,-216.7125 1212.8648,-216 1420.7642,-196.1518 1476.4539,-204.7238 1688.0929,-180.0286"/>
<polygon fill="#000000" stroke="#000000" points="1688.7683,-183.4733 1698.29,-178.8272 1687.9492,-176.5214 1688.7683,-183.4733"/>
</g>
<!-- [root] module.vpc.aws_subnet.ansari_public_subnet&#45;&gt;[root] module.vpc.data.aws_availability_zones.available -->
<g id="edge36" class="edge">
<title>[root] module.vpc.aws_subnet.ansari_public_subnet&#45;&gt;[root] module.vpc.data.aws_availability_zones.available</title>
<path fill="none" stroke="#000000" d="M1176.5592,-215.9707C1246.1533,-205.4879 1333.8994,-192.2709 1405.1389,-181.5403"/>
<polygon fill="#000000" stroke="#000000" points="1405.7108,-184.9937 1415.078,-180.0432 1404.6682,-178.0718 1405.7108,-184.9937"/>
</g>
<!-- [root] module.vpc.var.public_cidrs -->
<g id="node31" class="node">
<title>[root] module.vpc.var.public_cidrs</title>
<polygon fill="none" stroke="#000000" points="1137.3648,-180 970.3648,-180 970.3648,-144 1143.3648,-144 1143.3648,-174 1137.3648,-180"/>
<polyline fill="none" stroke="#000000" points="1137.3648,-180 1137.3648,-174 "/>
<polyline fill="none" stroke="#000000" points="1143.3648,-174 1137.3648,-174 "/>
<text text-anchor="middle" x="1056.8648" y="-158.3" font-family="Times,serif" font-size="14.00" fill="#000000">module.vpc.var.public_cidrs</text>
</g>
<!-- [root] module.vpc.aws_subnet.ansari_public_subnet&#45;&gt;[root] module.vpc.var.public_cidrs -->
<g id="edge37" class="edge">
<title>[root] module.vpc.aws_subnet.ansari_public_subnet&#45;&gt;[root] module.vpc.var.public_cidrs</title>
<path fill="none" stroke="#000000" d="M1056.8648,-215.8314C1056.8648,-208.131 1056.8648,-198.9743 1056.8648,-190.4166"/>
<polygon fill="#000000" stroke="#000000" points="1060.3649,-190.4132 1056.8648,-180.4133 1053.3649,-190.4133 1060.3649,-190.4132"/>
</g>
<!-- [root] module.vpc.provider.aws -->
<g id="node27" class="node">
<title>[root] module.vpc.provider.aws</title>
<polygon fill="none" stroke="#000000" points="1548.8648,-108 1406.426,-90 1548.8648,-72 1691.3035,-90 1548.8648,-108"/>
<text text-anchor="middle" x="1548.8648" y="-86.3" font-family="Times,serif" font-size="14.00" fill="#000000">module.vpc.provider.aws</text>
</g>
<!-- [root] module.vpc.aws_vpc.ansari_main&#45;&gt;[root] module.vpc.provider.aws -->
<g id="edge38" class="edge">
<title>[root] module.vpc.aws_vpc.ansari_main&#45;&gt;[root] module.vpc.provider.aws</title>
<path fill="none" stroke="#000000" d="M1736.8509,-143.9243C1695.3506,-132.0198 1641.6114,-116.6046 1602.2254,-105.3066"/>
<polygon fill="#000000" stroke="#000000" points="1603.1149,-101.9207 1592.5375,-102.5276 1601.1847,-108.6493 1603.1149,-101.9207"/>
</g>
<!-- [root] module.vpc.var.vpc_cidr -->
<g id="node33" class="node">
<title>[root] module.vpc.var.vpc_cidr</title>
<polygon fill="none" stroke="#000000" points="1870.3648,-108 1723.3648,-108 1723.3648,-72 1876.3648,-72 1876.3648,-102 1870.3648,-108"/>
<polyline fill="none" stroke="#000000" points="1870.3648,-108 1870.3648,-102 "/>
<polyline fill="none" stroke="#000000" points="1876.3648,-102 1870.3648,-102 "/>
<text text-anchor="middle" x="1799.8648" y="-86.3" font-family="Times,serif" font-size="14.00" fill="#000000">module.vpc.var.vpc_cidr</text>
</g>
<!-- [root] module.vpc.aws_vpc.ansari_main&#45;&gt;[root] module.vpc.var.vpc_cidr -->
<g id="edge39" class="edge">
<title>[root] module.vpc.aws_vpc.ansari_main&#45;&gt;[root] module.vpc.var.vpc_cidr</title>
<path fill="none" stroke="#000000" d="M1799.8648,-143.8314C1799.8648,-136.131 1799.8648,-126.9743 1799.8648,-118.4166"/>
<polygon fill="#000000" stroke="#000000" points="1803.3649,-118.4132 1799.8648,-108.4133 1796.3649,-118.4133 1803.3649,-118.4132"/>
</g>
<!-- [root] module.vpc.data.aws_availability_zones.available&#45;&gt;[root] module.vpc.provider.aws -->
<g id="edge40" class="edge">
<title>[root] module.vpc.data.aws_availability_zones.available&#45;&gt;[root] module.vpc.provider.aws</title>
<path fill="none" stroke="#000000" d="M1538.3976,-143.8314C1539.9346,-135.9266 1541.77,-126.4872 1543.4716,-117.7365"/>
<polygon fill="#000000" stroke="#000000" points="1546.9085,-118.3976 1545.3816,-107.9134 1540.0372,-117.0615 1546.9085,-118.3976"/>
</g>
<!-- [root] module.vpc.output.aws_internet_gateway -->
<g id="node23" class="node">
<title>[root] module.vpc.output.aws_internet_gateway</title>
<polygon fill="none" stroke="#000000" points="1412.8648,-468 1174.8648,-468 1174.8648,-432 1418.8648,-432 1418.8648,-462 1412.8648,-468"/>
<polyline fill="none" stroke="#000000" points="1412.8648,-468 1412.8648,-462 "/>
<polyline fill="none" stroke="#000000" points="1418.8648,-462 1412.8648,-462 "/>
<text text-anchor="middle" x="1296.8648" y="-446.3" font-family="Times,serif" font-size="14.00" fill="#000000">module.vpc.output.aws_internet_gateway</text>
</g>
<!-- [root] module.vpc.output.aws_internet_gateway&#45;&gt;[root] module.vpc.aws_internet_gateway.ansari_gw -->
<g id="edge41" class="edge">
<title>[root] module.vpc.output.aws_internet_gateway&#45;&gt;[root] module.vpc.aws_internet_gateway.ansari_gw</title>
<path fill="none" stroke="#000000" d="M1285.5452,-431.7678C1279.9251,-421.6415 1273.7353,-408.5789 1270.8648,-396 1267.305,-380.401 1266.2282,-375.3135 1270.8648,-360 1270.8916,-359.9113 1312.6526,-297.2897 1337.2738,-260.3738"/>
<polygon fill="#000000" stroke="#000000" points="1340.1976,-262.2978 1342.8346,-252.0364 1334.374,-258.4137 1340.1976,-262.2978"/>
</g>
<!-- [root] module.vpc.output.aws_vpc_id -->
<g id="node24" class="node">
<title>[root] module.vpc.output.aws_vpc_id</title>
<polygon fill="none" stroke="#000000" points="2537.8648,-468 2355.8648,-468 2355.8648,-432 2543.8648,-432 2543.8648,-462 2537.8648,-468"/>
<polyline fill="none" stroke="#000000" points="2537.8648,-468 2537.8648,-462 "/>
<polyline fill="none" stroke="#000000" points="2543.8648,-462 2537.8648,-462 "/>
<text text-anchor="middle" x="2449.8648" y="-446.3" font-family="Times,serif" font-size="14.00" fill="#000000">module.vpc.output.aws_vpc_id</text>
</g>
<!-- [root] module.vpc.output.aws_vpc_id&#45;&gt;[root] module.vpc.aws_vpc.ansari_main -->
<g id="edge42" class="edge">
<title>[root] module.vpc.output.aws_vpc_id&#45;&gt;[root] module.vpc.aws_vpc.ansari_main</title>
<path fill="none" stroke="#000000" d="M2454.363,-431.8191C2464.095,-387.6172 2481.6883,-273.9106 2421.8648,-216 2403.825,-198.5371 2085.9889,-178.0609 1911.831,-168.084"/>
<polygon fill="#000000" stroke="#000000" points="1911.7808,-164.5756 1901.5978,-167.5004 1911.3822,-171.5642 1911.7808,-164.5756"/>
</g>
<!-- [root] module.vpc.output.security_group&#45;&gt;[root] module.vpc.aws_security_group.my&#45;ansari&#45;sg -->
<g id="edge43" class="edge">
<title>[root] module.vpc.output.security_group&#45;&gt;[root] module.vpc.aws_security_group.my&#45;ansari&#45;sg</title>
<path fill="none" stroke="#000000" d="M1285.9162,-289.8866C1353.8676,-279.1574 1443.5692,-264.994 1515.6655,-253.6104"/>
<polygon fill="#000000" stroke="#000000" points="1516.386,-257.0401 1525.7177,-252.0232 1515.2942,-250.1258 1516.386,-257.0401"/>
</g>
<!-- [root] module.vpc.output.subnets&#45;&gt;[root] module.vpc.aws_subnet.ansari_public_subnet -->
<g id="edge44" class="edge">
<title>[root] module.vpc.output.subnets&#45;&gt;[root] module.vpc.aws_subnet.ansari_public_subnet</title>
<path fill="none" stroke="#000000" d="M972.3794,-287.8314C986.699,-278.7074 1004.2271,-267.539 1019.5985,-257.7449"/>
<polygon fill="#000000" stroke="#000000" points="1021.8064,-260.4882 1028.3592,-252.1628 1018.0449,-254.5847 1021.8064,-260.4882"/>
</g>
<!-- [root] module.vpc.var.aws_access_key -->
<g id="node28" class="node">
<title>[root] module.vpc.var.aws_access_key</title>
<polygon fill="none" stroke="#000000" points="1428.8648,-36 1240.8648,-36 1240.8648,0 1434.8648,0 1434.8648,-30 1428.8648,-36"/>
<polyline fill="none" stroke="#000000" points="1428.8648,-36 1428.8648,-30 "/>
<polyline fill="none" stroke="#000000" points="1434.8648,-30 1428.8648,-30 "/>
<text text-anchor="middle" x="1337.8648" y="-14.3" font-family="Times,serif" font-size="14.00" fill="#000000">module.vpc.var.aws_access_key</text>
</g>
<!-- [root] module.vpc.provider.aws&#45;&gt;[root] module.vpc.var.aws_access_key -->
<g id="edge49" class="edge">
<title>[root] module.vpc.provider.aws&#45;&gt;[root] module.vpc.var.aws_access_key</title>
<path fill="none" stroke="#000000" d="M1510.1641,-76.7941C1479.4971,-66.3295 1436.0376,-51.4997 1400.4391,-39.3524"/>
<polygon fill="#000000" stroke="#000000" points="1401.2187,-35.9203 1390.6241,-36.0032 1398.958,-42.5452 1401.2187,-35.9203"/>
</g>
<!-- [root] module.vpc.var.aws_secret_key -->
<g id="node29" class="node">
<title>[root] module.vpc.var.aws_secret_key</title>
<polygon fill="none" stroke="#000000" points="1638.3648,-36 1453.3648,-36 1453.3648,0 1644.3648,0 1644.3648,-30 1638.3648,-36"/>
<polyline fill="none" stroke="#000000" points="1638.3648,-36 1638.3648,-30 "/>
<polyline fill="none" stroke="#000000" points="1644.3648,-30 1638.3648,-30 "/>
<text text-anchor="middle" x="1548.8648" y="-14.3" font-family="Times,serif" font-size="14.00" fill="#000000">module.vpc.var.aws_secret_key</text>
</g>
<!-- [root] module.vpc.provider.aws&#45;&gt;[root] module.vpc.var.aws_secret_key -->
<g id="edge50" class="edge">
<title>[root] module.vpc.provider.aws&#45;&gt;[root] module.vpc.var.aws_secret_key</title>
<path fill="none" stroke="#000000" d="M1548.8648,-71.8314C1548.8648,-64.131 1548.8648,-54.9743 1548.8648,-46.4166"/>
<polygon fill="#000000" stroke="#000000" points="1552.3649,-46.4132 1548.8648,-36.4133 1545.3649,-46.4133 1552.3649,-46.4132"/>
</g>
<!-- [root] module.vpc.var.region -->
<g id="node32" class="node">
<title>[root] module.vpc.var.region</title>
<polygon fill="none" stroke="#000000" points="1796.8648,-36 1662.8648,-36 1662.8648,0 1802.8648,0 1802.8648,-30 1796.8648,-36"/>
<polyline fill="none" stroke="#000000" points="1796.8648,-36 1796.8648,-30 "/>
<polyline fill="none" stroke="#000000" points="1802.8648,-30 1796.8648,-30 "/>
<text text-anchor="middle" x="1732.8648" y="-14.3" font-family="Times,serif" font-size="14.00" fill="#000000">module.vpc.var.region</text>
</g>
<!-- [root] module.vpc.provider.aws&#45;&gt;[root] module.vpc.var.region -->
<g id="edge51" class="edge">
<title>[root] module.vpc.provider.aws&#45;&gt;[root] module.vpc.var.region</title>
<path fill="none" stroke="#000000" d="M1583.9069,-76.2879C1610.2512,-65.9792 1646.8683,-51.6508 1677.2044,-39.7801"/>
<polygon fill="#000000" stroke="#000000" points="1678.7751,-42.924 1686.8121,-36.0206 1676.2243,-36.4053 1678.7751,-42.924"/>
</g>
<!-- [root] meta.count&#45;boundary (EachMode fixup) -->
<g id="node35" class="node">
<title>[root] meta.count&#45;boundary (EachMode fixup)</title>
<ellipse fill="none" stroke="#000000" cx="1520.8648" cy="-522" rx="176.5689" ry="18"/>
<text text-anchor="middle" x="1520.8648" y="-518.3" font-family="Times,serif" font-size="14.00" fill="#000000">[root] meta.count&#45;boundary (EachMode fixup)</text>
</g>
<!-- [root] meta.count&#45;boundary (EachMode fixup)&#45;&gt;[root] module.ec2.aws_instance.my&#45;test&#45;instance -->
<g id="edge1" class="edge">
<title>[root] meta.count&#45;boundary (EachMode fixup)&#45;&gt;[root] module.ec2.aws_instance.my&#45;test&#45;instance</title>
<path fill="none" stroke="#000000" d="M1398.6274,-508.9613C1280.8407,-496.3974 1103.0188,-477.4298 981.0578,-464.4206"/>
<polygon fill="#000000" stroke="#000000" points="981.2218,-460.9183 970.907,-463.3378 980.4793,-467.8788 981.2218,-460.9183"/>
</g>
<!-- [root] meta.count&#45;boundary (EachMode fixup)&#45;&gt;[root] module.vpc.aws_route_table_association.private_subnet_assoc -->
<g id="edge2" class="edge">
<title>[root] meta.count&#45;boundary (EachMode fixup)&#45;&gt;[root] module.vpc.aws_route_table_association.private_subnet_assoc</title>
<path fill="none" stroke="#000000" d="M1668.094,-511.9798C1769.7128,-503.6832 1907.6493,-489.6856 2027.8648,-468 2154.7404,-445.113 2229.8215,-497.8498 2308.8648,-396 2318.6744,-383.36 2317.4435,-373.5057 2308.8648,-360 2300.2464,-346.4319 2287.2156,-336.2126 2272.983,-328.5352"/>
<polygon fill="#000000" stroke="#000000" points="2274.5083,-325.3848 2263.9946,-324.0761 2271.3974,-331.6556 2274.5083,-325.3848"/>
</g>
<!-- [root] meta.count&#45;boundary (EachMode fixup)&#45;&gt;[root] module.vpc.aws_route_table_association.public_subnet_assoc -->
<g id="edge3" class="edge">
<title>[root] meta.count&#45;boundary (EachMode fixup)&#45;&gt;[root] module.vpc.aws_route_table_association.public_subnet_assoc</title>
<path fill="none" stroke="#000000" d="M1512.8858,-503.7623C1502.0456,-478.9846 1482.571,-434.4714 1469.9371,-405.5939"/>
<polygon fill="#000000" stroke="#000000" points="1472.9938,-403.8483 1465.779,-396.0896 1466.5807,-406.6541 1472.9938,-403.8483"/>
</g>
<!-- [root] meta.count&#45;boundary (EachMode fixup)&#45;&gt;[root] module.vpc.aws_security_group_rule.allow&#45;outbound -->
<g id="edge4" class="edge">
<title>[root] meta.count&#45;boundary (EachMode fixup)&#45;&gt;[root] module.vpc.aws_security_group_rule.allow&#45;outbound</title>
<path fill="none" stroke="#000000" d="M1542.8781,-504.0761C1568.0055,-484.3031 1610.9367,-452.5663 1651.8648,-432 1677.8174,-418.9588 1707.6581,-407.854 1734.3678,-399.1675"/>
<polygon fill="#000000" stroke="#000000" points="1735.5904,-402.4513 1744.0536,-396.0775 1733.4629,-395.7825 1735.5904,-402.4513"/>
</g>
<!-- [root] meta.count&#45;boundary (EachMode fixup)&#45;&gt;[root] module.vpc.aws_security_group_rule.allow&#45;ssh -->
<g id="edge5" class="edge">
<title>[root] meta.count&#45;boundary (EachMode fixup)&#45;&gt;[root] module.vpc.aws_security_group_rule.allow&#45;ssh</title>
<path fill="none" stroke="#000000" d="M1656.1337,-510.3811C1765.7965,-500.0866 1911.1181,-484.2123 1967.8648,-468 2023.2485,-452.1771 2082.7029,-422.2798 2120.7607,-401.2993"/>
<polygon fill="#000000" stroke="#000000" points="2122.9295,-404.0975 2129.96,-396.1714 2119.5212,-397.9832 2122.9295,-404.0975"/>
</g>
<!-- [root] meta.count&#45;boundary (EachMode fixup)&#45;&gt;[root] module.vpc.output.aws_internet_gateway -->
<g id="edge6" class="edge">
<title>[root] meta.count&#45;boundary (EachMode fixup)&#45;&gt;[root] module.vpc.output.aws_internet_gateway</title>
<path fill="none" stroke="#000000" d="M1467.2112,-504.7542C1435.8759,-494.6821 1396.0866,-481.8927 1362.8448,-471.2079"/>
<polygon fill="#000000" stroke="#000000" points="1363.7978,-467.8379 1353.2064,-468.1098 1361.6556,-474.5021 1363.7978,-467.8379"/>
</g>
<!-- [root] meta.count&#45;boundary (EachMode fixup)&#45;&gt;[root] module.vpc.output.aws_vpc_id -->
<g id="edge7" class="edge">
<title>[root] meta.count&#45;boundary (EachMode fixup)&#45;&gt;[root] module.vpc.output.aws_vpc_id</title>
<path fill="none" stroke="#000000" d="M1687.5897,-515.8989C1853.7766,-508.674 2116.0785,-494.1752 2341.8648,-468 2343.1393,-467.8522 2344.4217,-467.6998 2345.7107,-467.5429"/>
<polygon fill="#000000" stroke="#000000" points="2346.227,-471.0054 2355.7,-466.2606 2345.3357,-464.0624 2346.227,-471.0054"/>
</g>
<!-- [root] module.ec2.provider.aws (close) -->
<g id="node36" class="node">
<title>[root] module.ec2.provider.aws (close)</title>
<ellipse fill="none" stroke="#000000" cx="1048.8648" cy="-522" rx="149.4735" ry="18"/>
<text text-anchor="middle" x="1048.8648" y="-518.3" font-family="Times,serif" font-size="14.00" fill="#000000">[root] module.ec2.provider.aws (close)</text>
</g>
<!-- [root] module.ec2.provider.aws (close)&#45;&gt;[root] module.ec2.aws_instance.my&#45;test&#45;instance -->
<g id="edge18" class="edge">
<title>[root] module.ec2.provider.aws (close)&#45;&gt;[root] module.ec2.aws_instance.my&#45;test&#45;instance</title>
<path fill="none" stroke="#000000" d="M1000.7566,-504.937C972.5091,-494.9182 936.5488,-482.1638 906.3891,-471.4668"/>
<polygon fill="#000000" stroke="#000000" points="907.4127,-468.1162 896.818,-468.0721 905.0728,-474.7136 907.4127,-468.1162"/>
</g>
<!-- [root] module.vpc.provider.aws (close) -->
<g id="node37" class="node">
<title>[root] module.vpc.provider.aws (close)</title>
<ellipse fill="none" stroke="#000000" cx="1809.8648" cy="-450" rx="149.4735" ry="18"/>
<text text-anchor="middle" x="1809.8648" y="-446.3" font-family="Times,serif" font-size="14.00" fill="#000000">[root] module.vpc.provider.aws (close)</text>
</g>
<!-- [root] module.vpc.provider.aws (close)&#45;&gt;[root] module.vpc.aws_route_table_association.private_subnet_assoc -->
<g id="edge45" class="edge">
<title>[root] module.vpc.provider.aws (close)&#45;&gt;[root] module.vpc.aws_route_table_association.private_subnet_assoc</title>
<path fill="none" stroke="#000000" d="M1880.527,-434.0708C1910.8462,-425.4513 1945.8828,-413.0142 1974.8648,-396 1995.2074,-384.0576 1993.3754,-371.689 2013.8648,-360 2038.8344,-345.7551 2067.9391,-334.9189 2095.3744,-326.8325"/>
<polygon fill="#000000" stroke="#000000" points="2096.3437,-330.1957 2104.9994,-324.0859 2094.4228,-323.4644 2096.3437,-330.1957"/>
</g>
<!-- [root] module.vpc.provider.aws (close)&#45;&gt;[root] module.vpc.aws_route_table_association.public_subnet_assoc -->
<g id="edge46" class="edge">
<title>[root] module.vpc.provider.aws (close)&#45;&gt;[root] module.vpc.aws_route_table_association.public_subnet_assoc</title>
<path fill="none" stroke="#000000" d="M1733.9194,-434.4657C1681.8695,-423.8192 1612.3372,-409.5966 1556.079,-398.0893"/>
<polygon fill="#000000" stroke="#000000" points="1556.5943,-394.6223 1546.0957,-396.0472 1555.1914,-401.4803 1556.5943,-394.6223"/>
</g>
<!-- [root] module.vpc.provider.aws (close)&#45;&gt;[root] module.vpc.aws_security_group_rule.allow&#45;outbound -->
<g id="edge47" class="edge">
<title>[root] module.vpc.provider.aws (close)&#45;&gt;[root] module.vpc.aws_security_group_rule.allow&#45;outbound</title>
<path fill="none" stroke="#000000" d="M1809.8648,-431.8314C1809.8648,-424.131 1809.8648,-414.9743 1809.8648,-406.4166"/>
<polygon fill="#000000" stroke="#000000" points="1813.3649,-406.4132 1809.8648,-396.4133 1806.3649,-406.4133 1813.3649,-406.4132"/>
</g>
<!-- [root] module.vpc.provider.aws (close)&#45;&gt;[root] module.vpc.aws_security_group_rule.allow&#45;ssh -->
<g id="edge48" class="edge">
<title>[root] module.vpc.provider.aws (close)&#45;&gt;[root] module.vpc.aws_security_group_rule.allow&#45;ssh</title>
<path fill="none" stroke="#000000" d="M1885.5944,-434.4657C1937.4964,-423.8192 2006.8312,-409.5966 2062.9296,-398.0893"/>
<polygon fill="#000000" stroke="#000000" points="2063.7918,-401.4854 2072.8845,-396.0472 2062.3851,-394.6281 2063.7918,-401.4854"/>
</g>
<!-- [root] provider.template (close) -->
<g id="node38" class="node">
<title>[root] provider.template (close)</title>
<ellipse fill="none" stroke="#000000" cx="503.8648" cy="-522" rx="122.3786" ry="18"/>
<text text-anchor="middle" x="503.8648" y="-518.3" font-family="Times,serif" font-size="14.00" fill="#000000">[root] provider.template (close)</text>
</g>
<!-- [root] provider.template (close)&#45;&gt;[root] module.ec2.data.template_file.init -->
<g id="edge52" class="edge">
<title>[root] provider.template (close)&#45;&gt;[root] module.ec2.data.template_file.init</title>
<path fill="none" stroke="#000000" d="M457.5889,-505.3407C384.8662,-479.1605 243.8617,-428.3989 163.5872,-399.5001"/>
<polygon fill="#000000" stroke="#000000" points="164.7018,-396.1815 154.1074,-396.0873 162.3307,-402.7677 164.7018,-396.1815"/>
</g>
<!-- [root] root -->
<g id="node39" class="node">
<title>[root] root</title>
<ellipse fill="none" stroke="#000000" cx="1220.8648" cy="-594" rx="47.3916" ry="18"/>
<text text-anchor="middle" x="1220.8648" y="-590.3" font-family="Times,serif" font-size="14.00" fill="#000000">[root] root</text>
</g>
<!-- [root] root&#45;&gt;[root] meta.count&#45;boundary (EachMode fixup) -->
<g id="edge53" class="edge">
<title>[root] root&#45;&gt;[root] meta.count&#45;boundary (EachMode fixup)</title>
<path fill="none" stroke="#000000" d="M1261.0128,-584.3645C1307.0468,-573.3163 1383.6367,-554.9347 1441.7711,-540.9825"/>
<polygon fill="#000000" stroke="#000000" points="1442.7587,-544.3449 1451.6657,-538.6078 1441.125,-537.5382 1442.7587,-544.3449"/>
</g>
<!-- [root] root&#45;&gt;[root] module.ec2.provider.aws (close) -->
<g id="edge54" class="edge">
<title>[root] root&#45;&gt;[root] module.ec2.provider.aws (close)</title>
<path fill="none" stroke="#000000" d="M1188.916,-580.6261C1163.9528,-570.1764 1128.7718,-555.4494 1099.9161,-543.3703"/>
<polygon fill="#000000" stroke="#000000" points="1100.9726,-540.0183 1090.3966,-539.3854 1098.2696,-546.4754 1100.9726,-540.0183"/>
</g>
<!-- [root] root&#45;&gt;[root] module.vpc.provider.aws (close) -->
<g id="edge55" class="edge">
<title>[root] root&#45;&gt;[root] module.vpc.provider.aws (close)</title>
<path fill="none" stroke="#000000" d="M1268.5032,-592.3181C1374.9707,-587.9821 1628.9619,-574.2673 1706.8648,-540 1739.6312,-525.587 1769.5225,-496.9422 1788.5636,-475.8235"/>
<polygon fill="#000000" stroke="#000000" points="1791.3409,-477.9652 1795.3134,-468.1433 1786.0829,-473.3442 1791.3409,-477.9652"/>
</g>
<!-- [root] root&#45;&gt;[root] provider.template (close) -->
<g id="edge56" class="edge">
<title>[root] root&#45;&gt;[root] provider.template (close)</title>
<path fill="none" stroke="#000000" d="M1174.9225,-589.3865C1063.3219,-578.1798 775.3871,-549.2658 615.3295,-533.1931"/>
<polygon fill="#000000" stroke="#000000" points="615.2746,-529.6701 604.9749,-532.1533 614.5751,-536.6351 615.2746,-529.6701"/>
</g>
</g>
</svg>
